<svg width="17" height="19" viewBox="0 0 17 19" fill="none" xmlns="http://www.w3.org/2000/svg">
<path d="M9.43438 18.9467C13.3541 18.5198 16.4955 15.473 16.9425 11.6616C17.5293 6.67811 13.5457 2.43589 8.55225 2.38156V0.145955C8.55225 0.0217552 8.39259 -0.0442261 8.28481 0.0333989L3.55081 3.41397C3.47098 3.47219 3.47098 3.58475 3.55081 3.64296L8.28481 7.02354C8.39259 7.10116 8.55225 7.0313 8.55225 6.91098V4.67926C12.0608 4.7336 14.8709 7.63677 14.6314 11.1066C14.4278 14.0913 11.9251 16.5132 8.85561 16.7034C5.60248 16.9052 2.83632 14.6463 2.34137 11.6578C2.24956 11.1027 1.75062 10.6991 1.17583 10.6991C0.46134 10.6991 -0.0974801 11.3162 0.0142838 12.0032C0.708817 16.2609 4.75227 19.4552 9.43438 18.9467Z" fill="white"/>
</svg>
